# xmcd
#
# Track frame offsets: 
#        150
#        17600
#        30565
#        44687
#        60782
#        76722
#        97955
#        113245
#        134012
#        148230
#        162625
#
# Disc length: 2438 seconds
#
# Revision: 3
# Processed by: cddbd v1.5.2PL0 Copyright (c) Steve Scherf et al.
# Submitted via: ExactAudioCopy v1.0b3
#
DISCID=8e09840b
DTITLE=Sonny Boy Williamson, Memphis Slim and Matt 'Guitar' Murphy - The
DTITLE=Unissued 1963 Blues Festival
DYEAR=2006
DGENRE=Blues
TTITLE0=Wish Me Well
TTITLE1=I Wrote This Song
TTITLE2=All By Myself
TTITLE3=99
TTITLE4=Bye Bye Bird
TTITLE5=In The Evening
TTITLE6=Grooving On Bounce
TTITLE7=Taking Off
TTITLE8=All My Love In Vain
TTITLE9=Your Funeral And My Trial
TTITLE10=Don't Start Me To Talking
EXTD=YEAR: 1963
EXTT0=
EXTT1=
EXTT2=
EXTT3=
EXTT4=
EXTT5=
EXTT6=
EXTT7=
EXTT8=
EXTT9=
EXTT10=
PLAYORDER=
